HIERARCHY
ROOT hip
{
  OFFSET 0 90.174 2.4664
  CHANNELS 6 Xposition Yposition Zposition Zrotation Xrotation Yrotation
  JOINT abdomen
  {
    OFFSET 0 -1.186 -1.5018
    CHANNELS 6 Xposition Yposition Zposition Zrotation Xrotation Yrotation
    JOINT abdomen2
    {
      OFFSET 0 9.964 0.2134
      CHANNELS 6 Xposition Yposition Zposition Zrotation Xrotation Yrotation
      JOINT chest
      {
        OFFSET 0 13.134 -3.2573
        CHANNELS 6 Xposition Yposition Zposition Zrotation Xrotation Yrotation
        JOINT neck
        {
          OFFSET 0 20.686 -1.6905
          CHANNELS 6 Xposition Yposition Zposition Zrotation Xrotation Yrotation
          JOINT head
          {
            OFFSET 0 7.238 -0.1237
            CHANNELS 6 Xposition Yposition Zposition Zrotation Xrotation Yrotation
            End Site
            {
              OFFSET 0 0 0
            }
          }
        }
        JOINT lCollar
        {
          OFFSET 1.7069 20.075 5.0056
          CHANNELS 6 Xposition Yposition Zposition Zrotation Xrotation Yrotation
          JOINT lShldr
          {
            OFFSET 13.6458 -0.047 -4.849
            CHANNELS 6 Xposition Yposition Zposition Zrotation Xrotation Yrotation
            JOINT lForeArm
            {
              OFFSET 28.3255 -0.9759 2.2888
              CHANNELS 6 Xposition Yposition Zposition Zrotation Xrotation Yrotation
              JOINT lHand
              {
                OFFSET 22.1583 -0.53 10.8316
                CHANNELS 6 Xposition Yposition Zposition Zrotation Xrotation Yrotation
                JOINT lThumb1
                {
                  OFFSET 0.786 0.112 2.5817
                  CHANNELS 6 Xposition Yposition Zposition Zrotation Xrotation Yrotation
                  JOINT lThumb2
                  {
                    OFFSET 0.3601 -0.878 4.2331
                    CHANNELS 6 Xposition Yposition Zposition Zrotation Xrotation Yrotation
                    JOINT lThumb2_End
                    {
                      OFFSET 1.8127 -1.216 2.2227
                      CHANNELS 6 Xposition Yposition Zposition Zrotation Xrotation Yrotation
                      End Site
                      {
                        OFFSET 0.0181 -0.0122 0.0222
                      }
                    }
                  }
                }
                JOINT lCarpal1
                {
                  OFFSET 0.9571 1.114 1.7695
                  CHANNELS 6 Xposition Yposition Zposition Zrotation Xrotation Yrotation
                  JOINT lIndex1
                  {
                    OFFSET 4.1246 0.487 4.1451
                    CHANNELS 6 Xposition Yposition Zposition Zrotation Xrotation Yrotation
                    JOINT lIndex2
                    {
                      OFFSET 3.4052 -1.454 2.7682
                      CHANNELS 6 Xposition Yposition Zposition Zrotation Xrotation Yrotation
                      JOINT lIndex2_End
                      {
                        OFFSET 1.4531 -1.795 1.2713
                        CHANNELS 6 Xposition Yposition Zposition Zrotation Xrotation Yrotation
                        End Site
                        {
                          OFFSET 0.0145 -0.0179 0.0127
                        }
                      }
                    }
                  }
                  JOINT lMid1
                  {
                    OFFSET 5.6954 0.21 2.1184
                    CHANNELS 6 Xposition Yposition Zposition Zrotation Xrotation Yrotation
                    JOINT lMid2
                    {
                      OFFSET 3.9766 -1.54 2.3863
                      CHANNELS 6 Xposition Yposition Zposition Zrotation Xrotation Yrotation
                      JOINT lMid2_End
                      {
                        OFFSET 1.4042 -1.926 1.125
                        CHANNELS 6 Xposition Yposition Zposition Zrotation Xrotation Yrotation
                        End Site
                        {
                          OFFSET 0.014 -0.0193 0.0113
                        }
                      }
                    }
                  }
                }
                JOINT lCarpal2
                {
                  OFFSET 2.0956 0.66 -0.3894
                  CHANNELS 6 Xposition Yposition Zposition Zrotation Xrotation Yrotation
                  JOINT lRing1
                  {
                    OFFSET 5.0395 -0.09 2.4971
                    CHANNELS 6 Xposition Yposition Zposition Zrotation Xrotation Yrotation
                    JOINT lRing2
                    {
                      OFFSET 3.7921 -1.552 1.4806
                      CHANNELS 6 Xposition Yposition Zposition Zrotation Xrotation Yrotation
                      JOINT lRing2_End
                      {
                        OFFSET 1.4655 -1.808 0.9609
                        CHANNELS 6 Xposition Yposition Zposition Zrotation Xrotation Yrotation
                        End Site
                        {
                          OFFSET 0.0147 -0.0181 0.0096
                        }
                      }
                    }
                  }
                  JOINT lPinky1
                  {
                    OFFSET 4.9141 -1.269 0.3591
                    CHANNELS 6 Xposition Yposition Zposition Zrotation Xrotation Yrotation
                    JOINT lPinky2
                    {
                      OFFSET 3.1477 -1.685 0.8462
                      CHANNELS 6 Xposition Yposition Zposition Zrotation Xrotation Yrotation
                      JOINT lPinky2_End
                      {
                        OFFSET 0.8055 -1.585 0.7955
                        CHANNELS 6 Xposition Yposition Zposition Zrotation Xrotation Yrotation
                        End Site
                        {
                          OFFSET 0.0081 -0.0158 0.008
                        }
                      }
                    }
                  }
                }
              }
            }
          }
        }
        JOINT rCollar
        {
          OFFSET -1.7069 20.075 5.0056
          CHANNELS 6 Xposition Yposition Zposition Zrotation Xrotation Yrotation
          JOINT rShldr
          {
            OFFSET -13.6458 -0.047 -4.849
            CHANNELS 6 Xposition Yposition Zposition Zrotation Xrotation Yrotation
            JOINT rForeArm
            {
              OFFSET -28.3255 -0.9759 2.2888
              CHANNELS 6 Xposition Yposition Zposition Zrotation Xrotation Yrotation
              JOINT rHand
              {
                OFFSET -22.1583 -0.53 10.8316
                CHANNELS 6 Xposition Yposition Zposition Zrotation Xrotation Yrotation
                JOINT rThumb1
                {
                  OFFSET -0.786 0.112 2.5817
                  CHANNELS 6 Xposition Yposition Zposition Zrotation Xrotation Yrotation
                  JOINT rThumb2
                  {
                    OFFSET -0.3601 -0.878 4.2331
                    CHANNELS 6 Xposition Yposition Zposition Zrotation Xrotation Yrotation
                    JOINT rThumb2_End
                    {
                      OFFSET -1.8127 -1.216 2.2227
                      CHANNELS 6 Xposition Yposition Zposition Zrotation Xrotation Yrotation
                      End Site
                      {
                        OFFSET -0.0181 -0.0122 0.0222
                      }
                    }
                  }
                }
                JOINT rCarpal1
                {
                  OFFSET -0.9571 1.114 1.7695
                  CHANNELS 6 Xposition Yposition Zposition Zrotation Xrotation Yrotation
                  JOINT rIndex1
                  {
                    OFFSET -4.1246 0.487 4.1451
                    CHANNELS 6 Xposition Yposition Zposition Zrotation Xrotation Yrotation
                    JOINT rIndex2
                    {
                      OFFSET -3.4052 -1.454 2.7682
                      CHANNELS 6 Xposition Yposition Zposition Zrotation Xrotation Yrotation
                      JOINT rIndex2_End
                      {
                        OFFSET -1.4531 -1.795 1.2713
                        CHANNELS 6 Xposition Yposition Zposition Zrotation Xrotation Yrotation
                        End Site
                        {
                          OFFSET -0.0145 -0.018 0.0127
                        }
                      }
                    }
                  }
                  JOINT rMid1
                  {
                    OFFSET -5.6954 0.21 2.1184
                    CHANNELS 6 Xposition Yposition Zposition Zrotation Xrotation Yrotation
                    JOINT rMid2
                    {
                      OFFSET -3.9766 -1.54 2.3863
                      CHANNELS 6 Xposition Yposition Zposition Zrotation Xrotation Yrotation
                      JOINT rMid2_End
                      {
                        OFFSET -1.4042 -1.926 1.125
                        CHANNELS 6 Xposition Yposition Zposition Zrotation Xrotation Yrotation
                        End Site
                        {
                          OFFSET -0.014 -0.0193 0.0113
                        }
                      }
                    }
                  }
                }
                JOINT rCarpal2
                {
                  OFFSET -2.0956 0.66 -0.3894
                  CHANNELS 6 Xposition Yposition Zposition Zrotation Xrotation Yrotation
                  JOINT rRing1
                  {
                    OFFSET -5.0395 -0.09 2.4971
                    CHANNELS 6 Xposition Yposition Zposition Zrotation Xrotation Yrotation
                    JOINT rRing2
                    {
                      OFFSET -3.7921 -1.552 1.4806
                      CHANNELS 6 Xposition Yposition Zposition Zrotation Xrotation Yrotation
                      JOINT rRing2_End
                      {
                        OFFSET -1.4655 -1.808 0.9609
                        CHANNELS 6 Xposition Yposition Zposition Zrotation Xrotation Yrotation
                        End Site
                        {
                          OFFSET -0.0147 -0.0181 0.0096
                        }
                      }
                    }
                  }
                  JOINT rPinky1
                  {
                    OFFSET -4.9141 -1.269 0.3592
                    CHANNELS 6 Xposition Yposition Zposition Zrotation Xrotation Yrotation
                    JOINT rPinky2
                    {
                      OFFSET -3.1477 -1.685 0.8462
                      CHANNELS 6 Xposition Yposition Zposition Zrotation Xrotation Yrotation
                      JOINT rPinky2_End
                      {
                        OFFSET -0.8055 -1.585 0.7955
                        CHANNELS 6 Xposition Yposition Zposition Zrotation Xrotation Yrotation
                        End Site
                        {
                          OFFSET -0.0081 -0.0158 0.008
                        }
                      }
                    }
                  }
                }
              }
            }
          }
        }
      }
    }
  }
  JOINT lThigh
  {
    OFFSET 8.367 -8.2066 0.5982
    CHANNELS 6 Xposition Yposition Zposition Zrotation Xrotation Yrotation
    JOINT lShin
    {
      OFFSET 2.1923 -43.463 -0.4932
      CHANNELS 6 Xposition Yposition Zposition Zrotation Xrotation Yrotation
      JOINT lFoot
      {
        OFFSET 0.7333 -45.8593 -2.6451
        CHANNELS 6 Xposition Yposition Zposition Zrotation Xrotation Yrotation
        End Site
        {
          OFFSET 2.6618 -4.2699 12.3931
        }
      }
    }
  }
  JOINT rThigh
  {
    OFFSET -8.367 -8.2066 0.5982
    CHANNELS 6 Xposition Yposition Zposition Zrotation Xrotation Yrotation
    JOINT rShin
    {
      OFFSET -2.1923 -43.463 -0.4931
      CHANNELS 6 Xposition Yposition Zposition Zrotation Xrotation Yrotation
      JOINT rFoot
      {
        OFFSET -0.7333 -45.8593 -2.6451
        CHANNELS 6 Xposition Yposition Zposition Zrotation Xrotation Yrotation
        End Site
        {
          OFFSET -2.6618 -4.2699 12.3931
        }
      }
    }
  }
}
MOTION
Frames:	4
Frame Time:	0.0333333
0.977988 86.9587 31.1136 0 28.1254 -0 0 -1.186 -1.5018 0.380495 -1.65975 -0.437913 -2.22045e-016 9.964 0.2134 0.748754 -3.32237 -0.865329 0 13.134 -3.2573 0.748754 -3.32237 -0.865329 -8.88178e-016 20.686 -1.6905 16.244 1.61996 8.97754 7.10543e-015 7.238 -0.1237 -3.67735e-006 1.67987 -2.29966e-006 1.7069 20.075 5.0056 -23.0951 35.2325 -8.62524 13.6458 -0.047 -4.849 -79.4742 -50.466 -43.1246 28.3255 -0.9759 2.2888 -104.682 8.02291 10.8918 22.1583 -0.53 10.8316 123.892 27.2892 -60.9223 0.786 0.112 2.5817 2.24835e-006 8.58162e-007 -1.03524e-006 0.3601 -0.878 4.2331 -1.59028e-015 1.59028e-015 -6.36111e-015 1.8127 -1.216 2.2227 -2.24835e-006 -8.58162e-007 1.03524e-006 0.9571 1.114 1.7695 6.36111e-015 -1.27222e-014 -9.54166e-015 4.1246 0.487 4.1451 2.24835e-006 8.58162e-007 -1.03524e-006 3.4052 -1.454 2.7682 7.95139e-015 -1.11319e-014 -6.36111e-015 1.4531 -1.795 1.2713 -2.24835e-006 -8.58162e-007 1.03524e-006 5.6954 0.21 2.1184 2.24835e-006 8.58162e-007 -1.03524e-006 3.9766 -1.54 2.3863 7.95139e-015 -1.11319e-014 -6.36111e-015 1.4042 -1.926 1.125 -2.24835e-006 -8.58162e-007 1.03524e-006 2.0956 0.66 -0.3894 6.36111e-015 -1.27222e-014 -9.54166e-015 5.0395 -0.09 2.4971 2.24835e-006 8.58162e-007 -1.03524e-006 3.7921 -1.552 1.4806 7.95139e-015 -1.11319e-014 -6.36111e-015 1.4655 -1.808 0.9609 -2.24835e-006 -8.58162e-007 1.03524e-006 4.9141 -1.269 0.3591 2.24835e-006 8.58162e-007 -1.03524e-006 3.1477 -1.685 0.8462 7.95139e-015 -1.11319e-014 -6.36111e-015 0.8055 -1.585 0.7955 -2.24835e-006 -8.58162e-007 1.03524e-006 -1.7069 20.075 5.0056 22.1604 35.0252 5.3651 -13.6458 -0.047 -4.849 79.1456 -51.1772 43.5541 -28.3255 -0.9759 2.2888 104.705 7.85778 -11.2493 -22.1583 -0.53 10.8316 -123.773 32.6343 63.5896 -0.786 0.112 2.5817 -4.77083e-015 0 -1.59028e-014 -0.3601 -0.878 4.2331 1.32417e-030 7.95139e-015 -9.54166e-015 -1.8127 -1.216 2.2227 1.59028e-015 6.36111e-015 -1.90833e-014 -0.9571 1.114 1.7695 -6.36111e-015 1.59028e-015 -3.18055e-015 -4.1246 0.487 4.1451 9.54166e-015 1.27222e-014 -2.22639e-014 -3.4052 -1.454 2.7682 4.77083e-015 4.77083e-015 -6.36111e-015 -1.4531 -1.795 1.2713 4.77083e-015 1.59028e-015 -1.90833e-014 -5.6954 0.21 2.1184 9.54166e-015 1.27222e-014 -2.22639e-014 -3.9766 -1.54 2.3863 4.77083e-015 4.77083e-015 -6.36111e-015 -1.4042 -1.926 1.125 4.77083e-015 1.59028e-015 -1.90833e-014 -2.0956 0.66 -0.3894 -6.36111e-015 1.59028e-015 -3.18055e-015 -5.0395 -0.09 2.4971 9.54166e-015 1.27222e-014 -2.22639e-014 -3.7921 -1.552 1.4806 4.77083e-015 4.77083e-015 -6.36111e-015 -1.4655 -1.808 0.9609 4.77083e-015 1.59028e-015 -1.90833e-014 -4.9141 -1.269 0.3592 9.54166e-015 1.27222e-014 -2.22639e-014 -3.1477 -1.685 0.8462 4.77083e-015 4.77083e-015 -6.36111e-015 -0.8055 -1.585 0.7955 4.77083e-015 1.59028e-015 -1.90833e-014 8.367 -8.2066 0.5982 25.1503 -51.3582 33.7401 2.1923 -43.463 -0.4932 -4.39209 28.8173 5.92593 0.7333 -45.8593 -2.6451 9.85491 9.0178 5.96345 -8.367 -8.2066 0.5982 -25.8883 -50.8287 -32.2386 -2.1923 -43.463 -0.4931 4.27748 27.3041 -5.68939 -0.7333 -45.8593 -2.6451 -8.03855 10.94 -7.44869 
0.977926 86.9101 30.9626 0 28.7528 -0 0 -1.186 -1.5018 0.382296 -1.84046 -0.434947 -2.22045e-016 9.964 0.2134 0.751178 -3.68371 -0.858256 0 13.134 -3.2573 0.751177 -3.6837 -0.858256 0 20.686 -1.6905 16.1487 1.12862 9.06407 -7.10543e-015 7.238 -0.1237 -3.6094e-006 0.61667 -2.15535e-007 1.7069 20.075 5.0056 -23.101 35.3597 -8.52021 13.6458 -0.047 -4.849 -79.4742 -50.466 -43.1246 28.3255 -0.9759 2.2888 -104.868 8.06249 10.9383 22.1583 -0.53 10.8316 123.991 27.3877 -60.7183 0.786 0.112 2.5817 9.54166e-015 1.59028e-015 -6.36111e-015 0.3601 -0.878 4.2331 -0 -6.36111e-015 -0 1.8127 -1.216 2.2227 -3.18055e-015 1.43125e-014 9.54166e-015 0.9571 1.114 1.7695 9.54166e-015 1.59028e-015 -6.36111e-015 4.1246 0.487 4.1451 -0 -6.36111e-015 -0 3.4052 -1.454 2.7682 -3.18055e-015 1.43125e-014 9.54166e-015 1.4531 -1.795 1.2713 1.59028e-015 -1.59028e-015 -3.18055e-015 5.6954 0.21 2.1184 -0 -6.36111e-015 -0 3.9766 -1.54 2.3863 -3.18055e-015 1.43125e-014 9.54166e-015 1.4042 -1.926 1.125 1.59028e-015 -1.59028e-015 -3.18055e-015 2.0956 0.66 -0.3894 9.54166e-015 1.59028e-015 -6.36111e-015 5.0395 -0.09 2.4971 -0 -6.36111e-015 -0 3.7921 -1.552 1.4806 -3.18055e-015 1.43125e-014 9.54166e-015 1.4655 -1.808 0.9609 1.59028e-015 -1.59028e-015 -3.18055e-015 4.9141 -1.269 0.3591 -0 -6.36111e-015 -0 3.1477 -1.685 0.8462 -3.18055e-015 1.43125e-014 9.54166e-015 0.8055 -1.585 0.7955 1.59028e-015 -1.59028e-015 -3.18055e-015 -1.7069 20.075 5.0056 22.1672 35.1493 5.25325 -13.6458 -0.047 -4.849 79.1455 -51.1772 43.554 -28.3255 -0.9759 2.2888 104.705 7.85779 -11.2493 -22.1583 -0.53 10.8316 -123.773 32.6343 63.5896 -0.786 0.112 2.5817 -1.24491e-006 -2.31391e-006 5.21494e-006 -0.3601 -0.878 4.2331 -7.36922e-007 -1.3079e-006 8.03298e-007 -1.8127 -1.216 2.2227 -5.19503e-006 -3.10381e-006 3.07055e-006 -0.9571 1.114 1.7695 1.59028e-015 -1.59028e-015 3.18055e-015 -4.1246 0.487 4.1451 -1.24491e-006 -2.31391e-006 5.21494e-006 -3.4052 -1.454 2.7682 -7.36922e-007 -1.3079e-006 8.03298e-007 -1.4531 -1.795 1.2713 -5.19503e-006 -3.10381e-006 3.07055e-006 -5.6954 0.21 2.1184 -1.24491e-006 -2.31391e-006 5.21494e-006 -3.9766 -1.54 2.3863 -7.36922e-007 -1.3079e-006 8.03298e-007 -1.4042 -1.926 1.125 -5.19503e-006 -3.10381e-006 3.07055e-006 -2.0956 0.66 -0.3894 1.59028e-015 -1.59028e-015 3.18055e-015 -5.0395 -0.09 2.4971 -1.24491e-006 -2.31391e-006 5.21494e-006 -3.7921 -1.552 1.4806 -7.36922e-007 -1.3079e-006 8.03298e-007 -1.4655 -1.808 0.9609 -5.19503e-006 -3.10381e-006 3.07055e-006 -4.9141 -1.269 0.3592 -1.24491e-006 -2.31391e-006 5.21494e-006 -3.1477 -1.685 0.8462 -7.36922e-007 -1.3079e-006 8.03298e-007 -0.8055 -1.585 0.7955 -5.19503e-006 -3.10381e-006 3.07055e-006 8.367 -8.2066 0.5982 25.4387 -52.0743 33.956 2.1923 -43.463 -0.4932 -4.38899 28.8065 5.93289 0.7333 -45.8593 -2.6451 9.84658 9.23144 6.13088 -8.367 -8.2066 0.5982 -26.1707 -51.5381 -32.4308 -2.1923 -43.463 -0.4931 4.27435 27.2936 -5.69696 -0.7333 -45.8593 -2.6451 -8.01252 11.1575 -7.64442 
0.977849 86.8611 30.811 0 29.3801 -0 0 -1.186 -1.5018 0.384101 -2.0211 -0.431969 -2.22045e-016 9.964 0.2134 0.753639 -4.04507 -0.851154 0 13.134 -3.2573 0.753638 -4.04507 -0.851154 0 20.686 -1.6905 16.0542 0.637348 9.14982 0 7.238 -0.1237 5.33206e-006 -0.447624 8.23074e-008 1.7069 20.075 5.0056 -23.1072 35.487 -8.41487 13.6458 -0.047 -4.849 -79.4742 -50.466 -43.1246 28.3255 -0.9759 2.2888 -105.054 8.10189 10.9849 22.1583 -0.53 10.8316 124.091 27.4865 -60.5143 0.786 0.112 2.5817 7.95139e-015 -3.18055e-015 -3.18055e-015 0.3601 -0.878 4.2331 -5.55536e-006 -2.39427e-006 9.77248e-007 1.8127 -1.216 2.2227 9.54166e-015 1.59028e-015 -9.54166e-015 0.9571 1.114 1.7695 6.36111e-015 -1.59028e-015 -6.36111e-015 4.1246 0.487 4.1451 -7.95139e-015 0 1.27222e-014 3.4052 -1.454 2.7682 -5.55536e-006 -2.39427e-006 9.77248e-007 1.4531 -1.795 1.2713 6.36111e-015 -4.77083e-015 3.18055e-015 5.6954 0.21 2.1184 -7.95139e-015 0 1.27222e-014 3.9766 -1.54 2.3863 -5.55536e-006 -2.39427e-006 9.77248e-007 1.4042 -1.926 1.125 6.36111e-015 -4.77083e-015 3.18055e-015 2.0956 0.66 -0.3894 6.36111e-015 -1.59028e-015 -6.36111e-015 5.0395 -0.09 2.4971 -7.95139e-015 0 1.27222e-014 3.7921 -1.552 1.4806 -5.55536e-006 -2.39427e-006 9.77248e-007 1.4655 -1.808 0.9609 6.36111e-015 -4.77083e-015 3.18055e-015 4.9141 -1.269 0.3591 -7.95139e-015 0 1.27222e-014 3.1477 -1.685 0.8462 -5.55536e-006 -2.39427e-006 9.77248e-007 0.8055 -1.585 0.7955 6.36111e-015 -4.77083e-015 3.18055e-015 -1.7069 20.075 5.0056 22.1742 35.2736 5.14116 -13.6458 -0.047 -4.849 79.1455 -51.1772 43.554 -28.3255 -0.9759 2.2888 104.705 7.85779 -11.2493 -22.1583 -0.53 10.8316 -123.773 32.6343 63.5896 -0.786 0.112 2.5817 4.77083e-015 4.77083e-015 -6.36111e-015 -0.3601 -0.878 4.2331 0 3.18055e-015 -0 -1.8127 -1.216 2.2227 4.77083e-015 9.54166e-015 -3.18055e-015 -0.9571 1.114 1.7695 -3.18055e-015 3.18055e-015 -0 -4.1246 0.487 4.1451 -4.77083e-015 7.95139e-015 6.36111e-015 -3.4052 -1.454 2.7682 7.95139e-015 1.43125e-014 -1.27222e-014 -1.4531 -1.795 1.2713 -3.18055e-015 1.59028e-015 3.18055e-015 -5.6954 0.21 2.1184 -4.77083e-015 7.95139e-015 6.36111e-015 -3.9766 -1.54 2.3863 7.95139e-015 1.43125e-014 -1.27222e-014 -1.4042 -1.926 1.125 -3.18055e-015 1.59028e-015 3.18055e-015 -2.0956 0.66 -0.3894 -3.18055e-015 3.18055e-015 -0 -5.0395 -0.09 2.4971 -4.77083e-015 7.95139e-015 6.36111e-015 -3.7921 -1.552 1.4806 7.95139e-015 1.43125e-014 -1.27222e-014 -1.4655 -1.808 0.9609 -3.18055e-015 1.59028e-015 3.18055e-015 -4.9141 -1.269 0.3592 -4.77083e-015 7.95139e-015 6.36111e-015 -3.1477 -1.685 0.8462 7.95139e-015 1.43125e-014 -1.27222e-014 -0.8055 -1.585 0.7955 -3.18055e-015 1.59028e-015 3.18055e-015 8.367 -8.2066 0.5982 25.7364 -52.7894 34.1815 2.1923 -43.463 -0.4932 -4.38587 28.7957 5.9398 0.7333 -45.8593 -2.6451 9.83749 9.44513 6.29843 -8.367 -8.2066 0.5982 -26.4617 -52.2466 -32.6318 -2.1923 -43.463 -0.4931 4.27125 27.2831 -5.70444 -0.7333 -45.8593 -2.6451 -7.98559 11.375 -7.84042 
0.977758 86.8118 30.659 0 30.0074 -0 0 -1.186 -1.5018 0.385895 -2.20174 -0.428959 2.22045e-016 9.964 0.2134 0.756108 -4.40628 -0.843993 -4.44089e-016 13.134 -3.2573 0.756108 -4.40628 -0.843993 0 20.686 -1.6905 15.9604 0.14557 9.23474 -7.10543e-015 7.238 -0.1237 2.08362e-006 -1.51284 -5.43443e-007 1.7069 20.075 5.0056 -23.1136 35.6141 -8.30952 13.6458 -0.047 -4.849 -79.4743 -50.466 -43.1246 28.3255 -0.9759 2.2888 -105.241 8.14118 11.0316 22.1583 -0.53 10.8316 124.19 27.5857 -60.3103 0.786 0.112 2.5817 2.98931e-006 -3.87238e-006 -2.06497e-006 0.3601 -0.878 4.2331 3.54396e-006 -2.33206e-006 4.48888e-006 1.8127 -1.216 2.2227 4.48888e-006 -1.7155e-006 -2.29087e-006 0.9571 1.114 1.7695 -1.05934e-030 -6.36111e-015 -9.54166e-015 4.1246 0.487 4.1451 2.98931e-006 -3.87238e-006 -2.06497e-006 3.4052 -1.454 2.7682 3.54396e-006 -2.33206e-006 4.48888e-006 1.4531 -1.795 1.2713 4.48888e-006 -1.7155e-006 -2.29087e-006 5.6954 0.21 2.1184 2.98931e-006 -3.87238e-006 -2.06497e-006 3.9766 -1.54 2.3863 3.54396e-006 -2.33206e-006 4.48888e-006 1.4042 -1.926 1.125 4.48888e-006 -1.7155e-006 -2.29087e-006 2.0956 0.66 -0.3894 -1.05934e-030 -6.36111e-015 -9.54166e-015 5.0395 -0.09 2.4971 2.98931e-006 -3.87238e-006 -2.06497e-006 3.7921 -1.552 1.4806 3.54396e-006 -2.33206e-006 4.48888e-006 1.4655 -1.808 0.9609 4.48888e-006 -1.7155e-006 -2.29087e-006 4.9141 -1.269 0.3591 2.98931e-006 -3.87238e-006 -2.06497e-006 3.1477 -1.685 0.8462 3.54396e-006 -2.33206e-006 4.48888e-006 0.8055 -1.585 0.7955 4.48888e-006 -1.7155e-006 -2.29087e-006 -1.7069 20.075 5.0056 22.1816 35.3977 5.02894 -13.6458 -0.047 -4.849 79.1455 -51.1772 43.5541 -28.3255 -0.9759 2.2888 104.705 7.8578 -11.2493 -22.1583 -0.53 10.8316 -123.773 32.6343 63.5896 -0.786 0.112 2.5817 -9.54166e-015 -6.36111e-015 6.36111e-015 -0.3601 -0.878 4.2331 -4.09438e-006 -1.14056e-006 1.8637e-006 -1.8127 -1.216 2.2227 1.59028e-015 4.77083e-015 -3.18055e-015 -0.9571 1.114 1.7695 -4.77083e-015 -1.59028e-015 3.18055e-015 -4.1246 0.487 4.1451 -6.36111e-015 -6.36111e-015 3.18055e-015 -3.4052 -1.454 2.7682 -4.09438e-006 -1.14056e-006 1.8637e-006 -1.4531 -1.795 1.2713 3.18055e-015 6.36111e-015 -9.54166e-015 -5.6954 0.21 2.1184 -6.36111e-015 -6.36111e-015 3.18055e-015 -3.9766 -1.54 2.3863 -4.09438e-006 -1.14056e-006 1.8637e-006 -1.4042 -1.926 1.125 3.18055e-015 6.36111e-015 -9.54166e-015 -2.0956 0.66 -0.3894 -4.77083e-015 -1.59028e-015 3.18055e-015 -5.0395 -0.09 2.4971 -6.36111e-015 -6.36111e-015 3.18055e-015 -3.7921 -1.552 1.4806 -4.09438e-006 -1.14056e-006 1.8637e-006 -1.4655 -1.808 0.9609 3.18055e-015 6.36111e-015 -9.54166e-015 -4.9141 -1.269 0.3592 -6.36111e-015 -6.36111e-015 3.18055e-015 -3.1477 -1.685 0.8462 -4.09438e-006 -1.14056e-006 1.8637e-006 -0.8055 -1.585 0.7955 3.18055e-015 6.36111e-015 -9.54166e-015 8.367 -8.2066 0.5982 26.044 -53.5036 34.417 2.1923 -43.463 -0.4932 -4.38275 28.7849 5.94666 0.7333 -45.8593 -2.6451 9.82765 9.65883 6.46612 -8.367 -8.2066 0.5982 -26.7616 -52.9542 -32.8421 -2.1923 -43.463 -0.4931 4.26809 27.2723 -5.71183 -0.7333 -45.8593 -2.6451 -7.95776 11.5925 -8.03664 
